PathFileType	4	(X/Y/Z)	s11c0103.trc
DataRate	CameraRate	NumFrames	NumMarkers	Units	OrigDataRate	OrigDataStartFrame	OrigNumFrames
200	200	5	48	mm	200	250	2000
Frame#	Time	racr			lacr			c7			jug			rlel			rdr			llel			ldr			s2			lic			ric			lasi			rasi			rpsi			lpsi			rgt			lgt			rth1			rth2			rth3			rth4			rlfc			rmfc			rsh1			rsh2			rsh3			rsh4			rlmal			rcal			rtoe			rmt5			lth1			lth2			lth4			lth3			llfc			lmfc			llmal			lcal			lmt5			lsh1			lsh2			lsh3			lsh4			ltoe			SBIKE			LBIKE			RBIKE			
		X1	Y1	Z1	X2	Y2	Z2	X3	Y3	Z3	X4	Y4	Z4	X5	Y5	Z5	X6	Y6	Z6	X7	Y7	Z7	X8	Y8	Z8	X9	Y9	Z9	X10	Y10	Z10	X11	Y11	Z11	X12	Y12	Z12	X13	Y13	Z13	X14	Y14	Z14	X15	Y15	Z15	X16	Y16	Z16	X17	Y17	Z17	X18	Y18	Z18	X19	Y19	Z19	X20	Y20	Z20	X21	Y21	Z21	X22	Y22	Z22	X23	Y23	Z23	X24	Y24	Z24	X25	Y25	Z25	X26	Y26	Z26	X27	Y27	Z27	X28	Y28	Z28	X29	Y29	Z29	X30	Y30	Z30	X31	Y31	Z31	X32	Y32	Z32	X33	Y33	Z33	X34	Y34	Z34	X35	Y35	Z35	X36	Y36	Z36	X37	Y37	Z37	X38	Y38	Z38	X39	Y39	Z39	X40	Y40	Z40	X41	Y41	Z41	X42	Y42	Z42	X43	Y43	Z43	X44	Y44	Z44	X45	Y45	Z45	X46	Y46	Z46	X47	Y47	Z47	X48	Y48	Z48	
250	1.2500	464.615001	1397.100352	-105.299917	457.979856	1413.878042	-420.563260	386.726681	1505.736569	-257.278507	423.615828	1331.311246	-266.504824	586.651410	1154.447742	-52.671980	777.381561	923.399127	-97.604848	556.138069	1135.416553	-491.445468	781.633415	908.633613	-435.482048	-131.501598	1195.918192	-259.442294	83.804640	1210.241787	-457.749999	86.384433	1208.826332	-58.586107	114.315187	1132.457549	-427.028831	108.548984	1141.984389	-94.127804	-95.086418	1270.538454	-204.231693	-94.210266	1263.668132	-296.330655	31.982453	1075.370758	-30.968967	0.987601	1072.701518	-464.770681	151.986437	998.542488	-23.659350	239.123956	978.026072	-25.200722	302.738152	917.843298	-31.703957	255.854624	1009.150366	-37.649226	395.123115	851.994755	-42.472987	407.797286	838.167652	-173.737580	292.743015	731.205800	-44.687173	246.639958	661.240215	-71.949379	169.750472	619.739203	-79.549398	266.250591	648.618985	-103.753104	64.473410	546.056807	-102.120857	-0.038970	565.651437	-153.137323	219.573125	381.699982	-147.202861	147.431512	398.579649	-77.718520	105.173124	958.707853	-475.620003	174.454447	909.405166	-465.891829	203.109842	932.039092	-458.623086	210.914347	827.679967	-455.931342	295.863873	718.527167	-426.881169	302.397708	708.856887	-299.970538	219.464058	286.936269	-421.959835	178.423775	225.171436	-385.457306	384.768489	236.502407	-456.374998	264.031007	594.045422	-451.500378	277.561756	509.594720	-441.079980	247.344543	426.603298	-439.005910	308.387404	508.623191	-418.241300	469.369848	288.007932	-388.932767	-215.961369	950.885471	-256.171564	-17.794106	80.865835	-460.906335	-17.857418	80.876557	-61.971932	
251	1.2550	464.506897	1397.064713	-105.161345	457.930166	1413.857739	-420.505864	386.598912	1505.779697	-257.234015	423.503327	1331.351477	-266.450878	586.562484	1154.426173	-52.558516	777.365889	923.443858	-97.486981	556.151448	1135.449302	-491.401547	781.647134	908.650608	-435.491538	-131.557638	1195.875098	-259.648852	83.782944	1209.900208	-457.723168	86.185539	1209.359047	-58.654584	114.557021	1132.258966	-427.227230	108.190043	1142.498196	-94.364153	-95.207626	1270.611284	-204.621399	-94.247691	1263.558332	-296.587079	32.001103	1076.103403	-30.837901	0.606946	1072.118033	-464.767812	152.385256	1000.183509	-23.513860	239.693239	980.349526	-24.986906	303.839851	920.607910	-31.320255	256.177684	1011.550075	-37.532383	396.760106	855.437560	-41.943206	409.563522	841.554718	-173.211687	294.633352	734.326696	-44.348817	248.641477	664.425468	-71.706209	171.791063	622.794592	-79.472498	268.255044	651.914853	-103.504776	66.412497	548.979884	-102.177556	2.392638	568.820730	-152.834114	221.584982	384.679432	-147.249130	149.388569	401.619854	-77.748987	103.806229	957.233848	-475.724400	172.562113	907.196417	-465.894394	201.439773	929.559067	-458.652601	208.158237	825.138567	-455.730874	292.314084	715.584482	-426.571760	298.715296	705.724280	-299.672952	217.288018	283.614184	-421.900470	176.332676	221.754796	-385.285378	382.667568	233.392084	-456.324157	260.761303	591.064624	-451.250296	274.580605	506.575725	-440.869265	244.608516	423.517361	-438.894474	305.350473	505.685606	-417.982615	467.196697	285.108566	-388.919226	-215.966943	950.890780	-256.171931	-17.785681	80.839958	-460.933778	-17.844752	80.877849	-61.973433	
252	1.2600	464.378188	1397.032417	-105.043781	457.896210	1413.837774	-420.421941	386.481872	1505.828042	-257.198144	423.409556	1331.398246	-266.412198	586.470854	1154.425979	-52.407354	777.338845	923.500822	-97.362037	556.163032	1135.484585	-491.331781	781.662639	908.664658	-435.453717	-131.642884	1195.867285	-259.820263	83.769247	1209.554776	-457.715656	85.934296	1209.717010	-58.708438	114.813650	1132.012408	-427.391774	107.835313	1143.158063	-94.616728	-95.415060	1270.675491	-204.896075	-94.265190	1263.497978	-296.909782	31.987865	1077.031397	-30.764830	0.236804	1071.557625	-464.763112	152.956729	1001.904362	-23.506105	240.293571	982.684135	-24.743014	304.842360	923.417651	-30.981045	256.564492	1013.984473	-37.340752	398.360518	858.854492	-41.446061	411.243972	845.020059	-172.935224	296.541447	737.495428	-44.031643	250.506887	667.626068	-71.541365	173.825950	625.870580	-79.352588	270.216494	655.877230	-103.032082	68.538930	552.017641	-102.235615	4.395724	571.912219	-153.091798	223.653344	387.573221	-147.269087	151.587396	404.503855	-77.809321	102.421779	955.790808	-475.840241	170.673270	905.059716	-465.906524	199.800280	927.195355	-458.688019	205.398437	822.626571	-455.517559	288.774322	712.692395	-426.245447	294.089247	703.105849	-299.045266	215.005343	280.380456	-421.770424	174.254751	218.468589	-385.250537	380.538867	230.401548	-456.318892	257.473684	588.039854	-451.024664	271.535281	503.721442	-440.664988	241.794008	420.500649	-438.805644	302.320047	502.923731	-417.820674	465.014930	282.265605	-388.911819	-215.968491	950.882593	-256.174250	-17.785930	80.857027	-460.911867	-17.851291	80.880864	-61.972973	
253	1.2650	464.242744	1397.002817	-104.889180	457.880409	1413.810930	-420.350172	386.334143	1505.854627	-257.137078	423.318533	1331.441192	-266.350039	586.103793	1154.227863	-52.303579	777.329716	923.564412	-97.261664	556.191375	1135.503458	-491.242374	781.655801	908.667921	-435.428673	-131.707922	1195.853466	-260.033026	83.821451	1209.286510	-457.908630	85.658454	1210.025348	-58.745865	115.084264	1131.809921	-427.589616	107.444385	1143.709283	-94.870457	-95.426948	1270.739925	-205.278514	-94.275065	1263.417348	-297.236182	31.925312	1077.829907	-30.682738	-0.103295	1071.041179	-464.822251	153.517459	1003.993510	-22.022260	240.870376	985.042726	-24.517752	305.877269	926.305892	-30.588027	256.907585	1016.458708	-37.189025	399.942020	862.381407	-40.966977	412.959083	848.359638	-172.409736	298.424691	740.643753	-43.720698	252.577527	670.762859	-71.349736	175.877486	628.968541	-79.249936	272.224681	659.096813	-102.832462	70.718665	554.930714	-102.273387	6.476167	574.960233	-153.269086	225.823506	390.560764	-147.330512	153.600295	407.591059	-77.813721	101.022002	954.419664	-475.957136	168.774843	903.004558	-465.952909	198.077124	924.839140	-458.726119	202.635120	820.277322	-455.347836	285.217630	709.885056	-425.979056	290.340175	700.241519	-298.740148	212.707282	277.220977	-421.682978	172.030382	215.295765	-385.148610	378.368252	227.376983	-456.258674	254.151504	585.175133	-450.846209	268.430927	500.861308	-440.458232	238.956713	417.569056	-438.698055	299.188472	500.094588	-417.523950	462.776894	279.248761	-388.834283	-216.000535	950.884826	-256.164066	-17.790322	80.846036	-460.904498	-17.859849	80.870310	-61.973679	
254	1.2700	464.087172	1396.960606	-104.779275	457.839144	1413.759173	-420.247290	386.186521	1505.890478	-257.044864	423.188433	1331.473943	-266.271265	586.032683	1154.226429	-52.192157	777.338875	923.608923	-97.188562	556.203683	1135.520133	-491.187447	781.670925	908.684111	-435.407338	-131.800454	1195.836670	-260.293229	83.829218	1209.052575	-458.025165	85.356864	1210.365994	-58.828900	115.310371	1131.592963	-427.737630	107.060078	1144.249989	-95.094406	-95.406589	1270.783304	-205.745957	-94.327598	1263.338182	-297.528189	31.909000	1078.656818	-30.543950	-0.442546	1070.493773	-464.834246	153.883212	1005.656752	-22.458321	241.443070	987.428039	-24.295586	306.903388	929.138741	-30.255507	257.223052	1018.986709	-37.073063	401.523446	865.832953	-40.501945	414.574925	851.938301	-172.155880	300.325424	743.835935	-43.451303	254.622039	673.851627	-71.120459	177.962650	632.004312	-79.197333	275.530991	661.763700	-102.348155	72.775692	557.511033	-102.497157	8.803499	577.935137	-153.409111	227.990619	393.449345	-147.347460	155.752490	410.479837	-77.843778	99.607834	953.029616	-476.103603	166.858199	901.000689	-465.993922	196.387216	922.500186	-458.784786	199.877014	817.945200	-455.253316	281.649619	707.074579	-425.736588	286.594888	697.438570	-298.440478	210.375230	274.152498	-421.536712	169.792306	212.244588	-385.079991	376.100928	224.454724	-456.186517	250.809441	582.388978	-450.681225	265.303946	498.134429	-440.375812	236.078940	414.749794	-438.608669	296.061795	497.433499	-417.391899	460.562855	276.385739	-388.830164	-215.997288	950.888027	-256.173743	-17.794909	80.838479	-460.916376	-17.849861	80.872863	-61.980908	
